<svg width="71" height="72" viewBox="0 0 71 72" fill="none" xmlns="http://www.w3.org/2000/svg">
<path d="M66.0581 20.6111C63.6456 20.6111 61.6831 22.5922 61.6831 25.0277V29.4444H58.7664V23.9121C58.7664 22.3622 58.1442 20.8439 57.0575 19.7484L53.7876 16.4474C52.7023 15.3504 51.1983 14.7221 49.6632 14.7221H41.2663V8.83331H45.6413C48.054 8.83331 50.0163 6.85217 50.0163 4.41665C50.0163 1.98114 48.054 0 45.6413 0H28.1413C25.7288 0 23.7663 1.98114 23.7663 4.41665C23.7663 6.85217 25.7288 8.83331 28.1413 8.83331H32.5163V14.7222H27.0362C25.501 14.7222 23.9971 15.3505 22.9118 16.4475L18.7874 20.6112H16.4746C14.062 20.6112 12.0996 22.5922 12.0996 25.0279V29.4445H9.18311V25.0279C9.18311 22.5922 7.22065 20.6112 4.80811 20.6112C2.39556 20.6112 0.433105 22.5922 0.433105 25.0279V42.6945C0.433105 45.13 2.39556 47.1111 4.80811 47.1111C7.22065 47.1111 9.18311 45.13 9.18311 42.6945V38.2778H12.0997V42.6945C12.0997 45.13 14.0622 47.1111 16.4748 47.1111H18.7876L22.912 51.2748C23.9973 52.3717 25.5012 53 27.0364 53H46.7465C48.2818 53 49.7858 52.3717 50.8709 51.2748L57.0575 45.0293C58.1442 43.9337 58.7664 42.4154 58.7664 40.8656V38.2778H61.6831V42.6945C61.6831 45.13 63.6456 47.1111 66.0581 47.1111C68.4706 47.1111 70.4331 45.13 70.4331 42.6945V25.0279C70.4331 22.5922 68.4706 20.6111 66.0581 20.6111ZM67.5166 42.6943C67.5164 43.5065 66.8628 44.1665 66.0581 44.1665C65.2536 44.1665 64.5998 43.5067 64.5998 42.6943V36.8053C64.5998 35.9915 63.9474 35.3331 63.1413 35.3331H57.3081C56.502 35.3331 55.8498 35.9915 55.8498 36.8053V40.8655C55.8498 41.6404 55.5379 42.3996 54.9953 42.9473L48.8087 49.1926C48.2661 49.7406 47.5142 50.0553 46.7465 50.0553H27.0362C26.2685 50.0553 25.5166 49.7406 24.9742 49.1926L20.4225 44.5978C20.149 44.3217 19.7788 44.1664 19.3913 44.1664H16.4748C15.6701 44.1664 15.0163 43.5065 15.0163 42.6942V36.8053C15.0163 35.9915 14.3641 35.3329 13.558 35.3329H7.72473C6.91864 35.3329 6.26635 35.9915 6.26635 36.8053V42.6942C6.26649 43.5067 5.6127 44.1665 4.80811 44.1665C4.00351 44.1665 3.34973 43.5067 3.34973 42.6943V25.0277C3.34973 24.2154 4.00339 23.5553 4.80811 23.5553C5.61283 23.5553 6.26649 24.2152 6.26649 25.0277V30.9166C6.26649 31.7303 6.91878 32.3888 7.72487 32.3888H13.5581C14.3642 32.3888 15.0165 31.7303 15.0165 30.9166V25.0277C15.0165 24.2154 15.6701 23.5553 16.4749 23.5553H19.3914C19.7788 23.5553 20.1492 23.4002 20.4226 23.1241L24.9742 18.5292C25.5168 17.9815 26.2687 17.6666 27.0362 17.6666H33.9748C34.7809 17.6666 35.4331 17.0082 35.4331 16.1944V7.36104C35.4331 6.54728 34.7809 5.88878 33.9748 5.88878H28.1413C27.3368 5.88892 26.6831 5.22891 26.6831 4.41665C26.6831 3.6044 27.3368 2.94439 28.1414 2.94439H45.6414C46.4461 2.94439 47.0999 3.60427 47.0999 4.41665C47.0999 5.22904 46.4463 5.88892 45.6414 5.88892H39.8081C39.002 5.88892 38.3498 6.54742 38.3498 7.36118V16.1946C38.3498 17.0083 39.002 17.6668 39.8081 17.6668H49.6632C50.4308 17.6668 51.1828 17.9816 51.7254 18.5294L54.9953 21.8304C55.5379 22.3782 55.8498 23.1373 55.8498 23.9121V30.9166C55.8498 31.7303 56.502 32.3888 57.3081 32.3888H63.1414C63.9475 32.3888 64.5999 31.7303 64.5999 30.9166V25.0277C64.5999 24.2154 65.2536 23.5553 66.0583 23.5553C66.8628 23.5553 67.5166 24.2152 67.5166 25.0277V42.6943Z" fill="#B3B5B7"/>
<path d="M8.65711 59.732C9.79711 58.94 11.1051 58.544 12.5811 58.544C13.8531 58.544 14.8671 58.832 15.6231 59.408C16.3791 59.984 16.7571 60.788 16.7571 61.82C16.7571 62.312 16.6611 62.774 16.4691 63.206C16.2891 63.638 16.0131 64.034 15.6411 64.394C15.2811 64.754 14.9271 65.06 14.5791 65.312C14.2431 65.552 13.8171 65.822 13.3011 66.122C13.2411 66.158 13.0551 66.266 12.7431 66.446C12.4431 66.626 12.2511 66.74 12.1671 66.788C12.0951 66.836 11.9271 66.944 11.6631 67.112C11.4111 67.268 11.2431 67.382 11.1591 67.454C11.0871 67.526 10.9551 67.64 10.7631 67.796C10.5831 67.952 10.4571 68.084 10.3851 68.192C10.3251 68.3 10.2411 68.438 10.1331 68.606C10.0371 68.762 9.97111 68.918 9.93511 69.074C9.89911 69.23 9.88111 69.398 9.88111 69.578L16.8471 69.56V71H8.22511V70.28C8.22511 69.608 8.33311 69.002 8.54911 68.462C8.76511 67.91 9.07111 67.442 9.46711 67.058C9.87511 66.662 10.2771 66.332 10.6731 66.068C11.0691 65.792 11.5311 65.498 12.0591 65.186C12.1791 65.126 12.2691 65.078 12.3291 65.042C13.4211 64.406 14.1351 63.92 14.4711 63.584C14.9871 63.056 15.2451 62.462 15.2451 61.802C15.2451 61.202 14.9991 60.746 14.5071 60.434C14.0271 60.11 13.3431 59.948 12.4551 59.948C11.1591 59.948 9.89311 60.38 8.65711 61.244V59.732ZM24.087 58.76H25.725V66.878H28.029V68.282H25.725V71H24.231V68.282H17.409V66.932L24.087 58.76ZM24.231 66.878V60.794L19.263 66.878H24.231ZM29.4426 58.76H36.7866V60.2H30.8646L30.6486 63.656C31.2966 63.476 31.9926 63.386 32.7366 63.386C33.3486 63.386 33.9186 63.458 34.4466 63.602C34.9746 63.734 35.4606 63.95 35.9046 64.25C36.3606 64.538 36.7206 64.946 36.9846 65.474C37.2486 65.99 37.3806 66.602 37.3806 67.31C37.3806 68.522 36.9306 69.476 36.0306 70.172C35.1426 70.868 34.0086 71.216 32.6286 71.216C31.1406 71.216 29.8326 70.94 28.7046 70.388V68.948C29.7846 69.524 31.0326 69.812 32.4486 69.812C33.4806 69.812 34.3026 69.596 34.9146 69.164C35.5386 68.732 35.8506 68.114 35.8506 67.31C35.8506 65.606 34.6386 64.754 32.2146 64.754C31.1586 64.754 30.1026 64.946 29.0466 65.33L29.4426 58.76ZM45.4289 63.692C45.3689 64.64 45.2969 65.468 45.2129 66.176C45.1289 66.884 45.0089 67.568 44.8529 68.228C44.6969 68.876 44.5049 69.404 44.2769 69.812C44.0609 70.22 43.7849 70.544 43.4489 70.784C43.1129 71.024 42.7289 71.144 42.2969 71.144C41.9489 71.144 41.6009 71.078 41.2529 70.946V69.812C41.4449 69.884 41.6369 69.92 41.8289 69.92C42.5489 69.92 43.0709 69.29 43.3949 68.03C43.7309 66.758 43.9409 64.868 44.0249 62.36H50.3789V71H48.9389V63.692H45.4289ZM53.5068 69.578C53.6868 69.734 53.7768 69.956 53.7768 70.244C53.7768 70.532 53.6868 70.76 53.5068 70.928C53.3268 71.084 53.1048 71.162 52.8408 71.162C52.5768 71.162 52.3488 71.084 52.1568 70.928C51.9768 70.76 51.8868 70.532 51.8868 70.244C51.8868 69.956 51.9768 69.734 52.1568 69.578C52.3488 69.422 52.5768 69.344 52.8408 69.344C53.1048 69.344 53.3268 69.422 53.5068 69.578ZM54.4107 66.716C54.4107 65.96 54.5487 65.282 54.8247 64.682C55.1007 64.082 55.4607 63.602 55.9047 63.242C56.3607 62.882 56.8587 62.612 57.3987 62.432C57.9507 62.24 58.5147 62.144 59.0907 62.144C60.1587 62.144 61.0467 62.378 61.7547 62.846V64.25C61.0947 63.734 60.2667 63.476 59.2707 63.476C58.3347 63.476 57.5307 63.746 56.8587 64.286C56.1867 64.826 55.8507 65.624 55.8507 66.68C55.8507 67.724 56.1807 68.522 56.8407 69.074C57.5127 69.614 58.3107 69.884 59.2347 69.884C60.1947 69.884 61.0647 69.65 61.8447 69.182V70.622C61.0287 71.018 60.0927 71.216 59.0367 71.216C57.7887 71.216 56.7027 70.826 55.7787 70.046C54.8667 69.266 54.4107 68.156 54.4107 66.716ZM64.42 69.578C64.6 69.734 64.69 69.956 64.69 70.244C64.69 70.532 64.6 70.76 64.42 70.928C64.24 71.084 64.018 71.162 63.754 71.162C63.49 71.162 63.262 71.084 63.07 70.928C62.89 70.76 62.8 70.532 62.8 70.244C62.8 69.956 62.89 69.734 63.07 69.578C63.262 69.422 63.49 69.344 63.754 69.344C64.018 69.344 64.24 69.422 64.42 69.578Z" fill="#B3B5B7"/>
<path d="M26.6571 27.732C27.7971 26.94 29.1051 26.544 30.5811 26.544C31.8531 26.544 32.8671 26.832 33.6231 27.408C34.3791 27.984 34.7571 28.788 34.7571 29.82C34.7571 30.312 34.6611 30.774 34.4691 31.206C34.2891 31.638 34.0131 32.034 33.6411 32.394C33.2811 32.754 32.9271 33.06 32.5791 33.312C32.2431 33.552 31.8171 33.822 31.3011 34.122C31.2411 34.158 31.0551 34.266 30.7431 34.446C30.4431 34.626 30.2511 34.74 30.1671 34.788C30.0951 34.836 29.9271 34.944 29.6631 35.112C29.4111 35.268 29.2431 35.382 29.1591 35.454C29.0871 35.526 28.9551 35.64 28.7631 35.796C28.5831 35.952 28.4571 36.084 28.3851 36.192C28.3251 36.3 28.2411 36.438 28.1331 36.606C28.0371 36.762 27.9711 36.918 27.9351 37.074C27.8991 37.23 27.8811 37.398 27.8811 37.578L34.8471 37.56V39H26.2251V38.28C26.2251 37.608 26.3331 37.002 26.5491 36.462C26.7651 35.91 27.0711 35.442 27.4671 35.058C27.8751 34.662 28.2771 34.332 28.6731 34.068C29.0691 33.792 29.5311 33.498 30.0591 33.186C30.1791 33.126 30.2691 33.078 30.3291 33.042C31.4211 32.406 32.1351 31.92 32.4711 31.584C32.9871 31.056 33.2451 30.462 33.2451 29.802C33.2451 29.202 32.9991 28.746 32.5071 28.434C32.0271 28.11 31.3431 27.948 30.4551 27.948C29.1591 27.948 27.8931 28.38 26.6571 29.244V27.732ZM36.507 41.7H35.337L36.327 37.56H37.857L36.507 41.7ZM39.8664 26.76H47.2104V28.2H41.2884L41.0724 31.656C41.7204 31.476 42.4164 31.386 43.1604 31.386C43.7724 31.386 44.3424 31.458 44.8704 31.602C45.3984 31.734 45.8844 31.95 46.3284 32.25C46.7844 32.538 47.1444 32.946 47.4084 33.474C47.6724 33.99 47.8044 34.602 47.8044 35.31C47.8044 36.522 47.3544 37.476 46.4544 38.172C45.5664 38.868 44.4324 39.216 43.0524 39.216C41.5644 39.216 40.2564 38.94 39.1284 38.388V36.948C40.2084 37.524 41.4564 37.812 42.8724 37.812C43.9044 37.812 44.7264 37.596 45.3384 37.164C45.9624 36.732 46.2744 36.114 46.2744 35.31C46.2744 33.606 45.0624 32.754 42.6384 32.754C41.5824 32.754 40.5264 32.946 39.4704 33.33L39.8664 26.76Z" fill="#B3B5B7"/>
</svg>
