<svg width="54" height="74" viewBox="0 0 54 74" fill="none" xmlns="http://www.w3.org/2000/svg">
<path d="M14.772 70.7617H13.332V62.1217H19.65V63.4537H14.772V70.7617ZM20.9425 69.7717C20.0305 68.9557 19.5745 67.8457 19.5745 66.4417C19.5745 65.0377 20.0305 63.9337 20.9425 63.1297C21.8545 62.3137 22.9345 61.9057 24.1825 61.9057C25.4425 61.9057 26.5225 62.3137 27.4225 63.1297C28.3345 63.9337 28.7905 65.0377 28.7905 66.4417C28.7905 67.8457 28.3345 68.9557 27.4225 69.7717C26.5225 70.5757 25.4425 70.9777 24.1825 70.9777C22.9345 70.9777 21.8545 70.5757 20.9425 69.7717ZM26.4505 68.7637C27.0505 68.1877 27.3505 67.4137 27.3505 66.4417C27.3505 65.4697 27.0505 64.7017 26.4505 64.1377C25.8505 63.5617 25.0945 63.2737 24.1825 63.2737C23.2705 63.2737 22.5145 63.5617 21.9145 64.1377C21.3145 64.7017 21.0145 65.4697 21.0145 66.4417C21.0145 67.4137 21.3145 68.1877 21.9145 68.7637C22.5145 69.3277 23.2705 69.6097 24.1825 69.6097C25.0945 69.6097 25.8505 69.3277 26.4505 68.7637ZM30.3575 73.1017H28.9535V69.4657H30.1055C31.1255 67.6657 31.6175 65.2177 31.5815 62.1217H38.0255V69.4657H39.2855V73.1017H37.8815V70.7617H30.3575V73.1017ZM32.9675 63.4177C32.9075 65.7817 32.4755 67.7977 31.6715 69.4657H36.5855V63.4177H32.9675Z" fill="#B3B5B7"/>
<path d="M6.224 24.732C7.364 23.94 8.672 23.544 10.148 23.544C11.42 23.544 12.434 23.832 13.19 24.408C13.946 24.984 14.324 25.788 14.324 26.82C14.324 27.312 14.228 27.774 14.036 28.206C13.856 28.638 13.58 29.034 13.208 29.394C12.848 29.754 12.494 30.06 12.146 30.312C11.81 30.552 11.384 30.822 10.868 31.122C10.808 31.158 10.622 31.266 10.31 31.446C10.01 31.626 9.818 31.74 9.734 31.788C9.662 31.836 9.494 31.944 9.23 32.112C8.978 32.268 8.81 32.382 8.726 32.454C8.654 32.526 8.522 32.64 8.33 32.796C8.15 32.952 8.024 33.084 7.952 33.192C7.892 33.3 7.808 33.438 7.7 33.606C7.604 33.762 7.538 33.918 7.502 34.074C7.466 34.23 7.448 34.398 7.448 34.578L14.414 34.56V36H5.792V35.28C5.792 34.608 5.9 34.002 6.116 33.462C6.332 32.91 6.638 32.442 7.034 32.058C7.442 31.662 7.844 31.332 8.24 31.068C8.636 30.792 9.098 30.498 9.626 30.186C9.746 30.126 9.836 30.078 9.896 30.042C10.988 29.406 11.702 28.92 12.038 28.584C12.554 28.056 12.812 27.462 12.812 26.802C12.812 26.202 12.566 25.746 12.074 25.434C11.594 25.11 10.91 24.948 10.022 24.948C8.726 24.948 7.46 25.38 6.224 26.244V24.732ZM16.8119 34.47C15.8999 33.306 15.4439 31.776 15.4439 29.88C15.4439 27.984 15.8999 26.454 16.8119 25.29C17.7239 24.126 19.0679 23.544 20.8439 23.544C22.6319 23.544 23.9819 24.126 24.8939 25.29C25.8059 26.442 26.2619 27.972 26.2619 29.88C26.2619 31.788 25.8059 33.324 24.8939 34.488C23.9819 35.64 22.6319 36.216 20.8439 36.216C19.0679 36.216 17.7239 35.634 16.8119 34.47ZM23.7599 33.516C24.4079 32.664 24.7319 31.452 24.7319 29.88C24.7319 28.308 24.4079 27.102 23.7599 26.262C23.1239 25.41 22.1519 24.984 20.8439 24.984C19.5359 24.984 18.5639 25.41 17.9279 26.262C17.2919 27.102 16.9739 28.308 16.9739 29.88C16.9739 31.452 17.2919 32.664 17.9279 33.516C18.5639 34.356 19.5359 34.776 20.8439 34.776C22.1519 34.776 23.1239 34.356 23.7599 33.516ZM27.5962 24.732C28.7362 23.94 30.0442 23.544 31.5202 23.544C32.7922 23.544 33.8062 23.832 34.5622 24.408C35.3182 24.984 35.6962 25.788 35.6962 26.82C35.6962 27.312 35.6002 27.774 35.4082 28.206C35.2282 28.638 34.9522 29.034 34.5802 29.394C34.2202 29.754 33.8662 30.06 33.5182 30.312C33.1822 30.552 32.7562 30.822 32.2402 31.122C32.1802 31.158 31.9942 31.266 31.6822 31.446C31.3822 31.626 31.1902 31.74 31.1062 31.788C31.0342 31.836 30.8662 31.944 30.6022 32.112C30.3502 32.268 30.1822 32.382 30.0982 32.454C30.0262 32.526 29.8942 32.64 29.7022 32.796C29.5222 32.952 29.3962 33.084 29.3242 33.192C29.2642 33.3 29.1802 33.438 29.0722 33.606C28.9762 33.762 28.9102 33.918 28.8742 34.074C28.8382 34.23 28.8202 34.398 28.8202 34.578L35.7862 34.56V36H27.1642V35.28C27.1642 34.608 27.2722 34.002 27.4882 33.462C27.7042 32.91 28.0102 32.442 28.4062 32.058C28.8142 31.662 29.2162 31.332 29.6122 31.068C30.0082 30.792 30.4702 30.498 30.9982 30.186C31.1182 30.126 31.2082 30.078 31.2682 30.042C32.3602 29.406 33.0742 28.92 33.4102 28.584C33.9262 28.056 34.1842 27.462 34.1842 26.802C34.1842 26.202 33.9382 25.746 33.4462 25.434C32.9662 25.11 32.2822 24.948 31.3942 24.948C30.0982 24.948 28.8322 25.38 27.5962 26.244V24.732ZM38.1841 34.47C37.2721 33.306 36.8161 31.776 36.8161 29.88C36.8161 27.984 37.2721 26.454 38.1841 25.29C39.0961 24.126 40.4401 23.544 42.2161 23.544C44.0041 23.544 45.3541 24.126 46.2661 25.29C47.1781 26.442 47.6341 27.972 47.6341 29.88C47.6341 31.788 47.1781 33.324 46.2661 34.488C45.3541 35.64 44.0041 36.216 42.2161 36.216C40.4401 36.216 39.0961 35.634 38.1841 34.47ZM45.1321 33.516C45.7801 32.664 46.1041 31.452 46.1041 29.88C46.1041 28.308 45.7801 27.102 45.1321 26.262C44.4961 25.41 43.5241 24.984 42.2161 24.984C40.9081 24.984 39.9361 25.41 39.3001 26.262C38.6641 27.102 38.3461 28.308 38.3461 29.88C38.3461 31.452 38.6641 32.664 39.3001 33.516C39.9361 34.356 40.9081 34.776 42.2161 34.776C43.5241 34.776 44.4961 34.356 45.1321 33.516Z" fill="#B3B5B7"/>
<path d="M49.7358 16.3771C50.0132 16.3771 50.2853 16.2626 50.4814 16.0634C50.6777 15.8645 50.7905 15.5884 50.7905 15.307C50.7905 15.0255 50.6777 14.7494 50.4814 14.5504C50.2853 14.3513 50.0132 14.2368 49.7358 14.2368C49.4585 14.2368 49.1863 14.3512 48.9902 14.5504C48.794 14.7495 48.6812 15.0255 48.6812 15.307C48.6812 15.5884 48.7939 15.8645 48.9902 16.0634C49.1863 16.2626 49.4585 16.3771 49.7358 16.3771Z" fill="#B3B5B7"/>
<path d="M21.7339 45.4492H21.7182C21.1358 45.4492 20.6635 45.9284 20.6635 46.5194C20.6635 47.1103 21.1358 47.5895 21.7182 47.5895H21.7339C22.3163 47.5895 22.7886 47.1103 22.7886 46.5194C22.7886 45.9284 22.3163 45.4492 21.7339 45.4492Z" fill="#B3B5B7"/>
<path d="M54 41.3841V7.21352C54 5.50887 52.5806 4.12201 50.8359 4.12201H47.2232V3.50371C47.2232 1.57172 45.6146 0 43.6373 0C41.6599 0 40.0513 1.57172 40.0513 3.50371V4.12201H30.5725V3.50371C30.5725 1.57172 28.9639 0 26.9866 0C25.0093 0 23.4007 1.57172 23.4007 3.50371V4.12201H13.9219V3.50371C13.9219 1.57172 12.3133 0 10.3359 0C8.35861 0 6.75 1.57172 6.75 3.50371V4.12201H3.16406C1.4194 4.12201 0 5.50887 0 7.21352V49.6703C0 51.3749 1.4194 52.7618 3.16406 52.7618H42.3553C42.6464 52.7618 42.91 52.6465 43.1008 52.4601C43.1009 52.46 43.101 52.46 43.1011 52.4599L53.6911 42.1128C53.8819 41.9262 54 41.6686 54 41.3841ZM42.1607 3.50371C42.1607 2.70816 42.8231 2.06101 43.6373 2.06101C44.4515 2.06101 45.1138 2.70816 45.1138 3.50371V8.55318C45.1138 9.34873 44.4515 9.99588 43.6373 9.99588C42.8231 9.99588 42.1607 9.34873 42.1607 8.55318V3.50371ZM25.51 3.50371C25.51 2.70816 26.1724 2.06101 26.9866 2.06101C27.8008 2.06101 28.4632 2.70816 28.4632 3.50371V8.55318C28.4632 9.34873 27.8008 9.99588 26.9866 9.99588C26.1724 9.99588 25.51 9.34873 25.51 8.55318V3.50371ZM8.85938 3.50371C8.85938 2.70816 9.52172 2.06101 10.3359 2.06101C11.1502 2.06101 11.8125 2.70816 11.8125 3.50371V8.55318C11.8125 9.34873 11.1502 9.99588 10.3359 9.99588C9.52172 9.99588 8.85938 9.34873 8.85938 8.55318V3.50371ZM2.10938 49.6703V47.781H16.5059C17.0883 47.781 17.5605 47.3196 17.5605 46.7505C17.5605 46.1815 17.0883 45.72 16.5059 45.72H2.10938V17.7247H44.5078C45.0902 17.7247 45.5625 17.2632 45.5625 16.6942C45.5625 16.1251 45.0902 15.6637 44.5078 15.6637H2.10938V7.21352C2.10938 6.6453 2.58251 6.18302 3.16406 6.18302H6.75V8.55318C6.75 10.4852 8.35861 12.0569 10.3359 12.0569C12.3133 12.0569 13.9219 10.4852 13.9219 8.55318V6.18302H23.4007V8.55318C23.4007 10.4852 25.0093 12.0569 26.9866 12.0569C28.9639 12.0569 30.5725 10.4852 30.5725 8.55318V6.18302H40.0513V8.55318C40.0513 10.4852 41.6599 12.0569 43.6373 12.0569C45.6146 12.0569 47.2232 10.4852 47.2232 8.55318V6.18302H50.8359C51.4175 6.18302 51.8906 6.6453 51.8906 7.21352V40.3536H44.4647C42.72 40.3536 41.3006 41.7404 41.3006 43.4451V50.7008H3.16406C2.58251 50.7008 2.10938 50.2385 2.10938 49.6703ZM43.41 49.2433V43.445C43.41 42.8768 43.8831 42.4145 44.4647 42.4145H50.3991L43.41 49.2433Z" fill="#B3B5B7"/>
</svg>
