<svg width="54" height="74" viewBox="0 0 54 74" fill="none" xmlns="http://www.w3.org/2000/svg">
<path d="M14.772 70.7617H13.332V62.1217H19.65V63.4537H14.772V70.7617ZM20.9425 69.7717C20.0305 68.9557 19.5745 67.8457 19.5745 66.4417C19.5745 65.0377 20.0305 63.9337 20.9425 63.1297C21.8545 62.3137 22.9345 61.9057 24.1825 61.9057C25.4425 61.9057 26.5225 62.3137 27.4225 63.1297C28.3345 63.9337 28.7905 65.0377 28.7905 66.4417C28.7905 67.8457 28.3345 68.9557 27.4225 69.7717C26.5225 70.5757 25.4425 70.9777 24.1825 70.9777C22.9345 70.9777 21.8545 70.5757 20.9425 69.7717ZM26.4505 68.7637C27.0505 68.1877 27.3505 67.4137 27.3505 66.4417C27.3505 65.4697 27.0505 64.7017 26.4505 64.1377C25.8505 63.5617 25.0945 63.2737 24.1825 63.2737C23.2705 63.2737 22.5145 63.5617 21.9145 64.1377C21.3145 64.7017 21.0145 65.4697 21.0145 66.4417C21.0145 67.4137 21.3145 68.1877 21.9145 68.7637C22.5145 69.3277 23.2705 69.6097 24.1825 69.6097C25.0945 69.6097 25.8505 69.3277 26.4505 68.7637ZM30.3575 73.1017H28.9535V69.4657H30.1055C31.1255 67.6657 31.6175 65.2177 31.5815 62.1217H38.0255V69.4657H39.2855V73.1017H37.8815V70.7617H30.3575V73.1017ZM32.9675 63.4177C32.9075 65.7817 32.4755 67.7977 31.6715 69.4657H36.5855V63.4177H32.9675Z" fill="#B3B5B7"/>
<path d="M6.224 24.732C7.364 23.94 8.672 23.544 10.148 23.544C11.42 23.544 12.434 23.832 13.19 24.408C13.946 24.984 14.324 25.788 14.324 26.82C14.324 27.312 14.228 27.774 14.036 28.206C13.856 28.638 13.58 29.034 13.208 29.394C12.848 29.754 12.494 30.06 12.146 30.312C11.81 30.552 11.384 30.822 10.868 31.122C10.808 31.158 10.622 31.266 10.31 31.446C10.01 31.626 9.818 31.74 9.734 31.788C9.662 31.836 9.494 31.944 9.23 32.112C8.978 32.268 8.81 32.382 8.726 32.454C8.654 32.526 8.522 32.64 8.33 32.796C8.15 32.952 8.024 33.084 7.952 33.192C7.892 33.3 7.808 33.438 7.7 33.606C7.604 33.762 7.538 33.918 7.502 34.074C7.466 34.23 7.448 34.398 7.448 34.578L14.414 34.56V36H5.792V35.28C5.792 34.608 5.9 34.002 6.116 33.462C6.332 32.91 6.638 32.442 7.034 32.058C7.442 31.662 7.844 31.332 8.24 31.068C8.636 30.792 9.098 30.498 9.626 30.186C9.746 30.126 9.836 30.078 9.896 30.042C10.988 29.406 11.702 28.92 12.038 28.584C12.554 28.056 12.812 27.462 12.812 26.802C12.812 26.202 12.566 25.746 12.074 25.434C11.594 25.11 10.91 24.948 10.022 24.948C8.726 24.948 7.46 25.38 6.224 26.244V24.732ZM16.8119 34.47C15.8999 33.306 15.4439 31.776 15.4439 29.88C15.4439 27.984 15.8999 26.454 16.8119 25.29C17.7239 24.126 19.0679 23.544 20.8439 23.544C22.6319 23.544 23.9819 24.126 24.8939 25.29C25.8059 26.442 26.2619 27.972 26.2619 29.88C26.2619 31.788 25.8059 33.324 24.8939 34.488C23.9819 35.64 22.6319 36.216 20.8439 36.216C19.0679 36.216 17.7239 35.634 16.8119 34.47ZM23.7599 33.516C24.4079 32.664 24.7319 31.452 24.7319 29.88C24.7319 28.308 24.4079 27.102 23.7599 26.262C23.1239 25.41 22.1519 24.984 20.8439 24.984C19.5359 24.984 18.5639 25.41 17.9279 26.262C17.2919 27.102 16.9739 28.308 16.9739 29.88C16.9739 31.452 17.2919 32.664 17.9279 33.516C18.5639 34.356 19.5359 34.776 20.8439 34.776C22.1519 34.776 23.1239 34.356 23.7599 33.516ZM30.2962 23.76H31.4122V34.56H33.6982V36H27.3262V34.56H29.9002V25.362L27.3262 26.334V24.894L30.2962 23.76ZM35.7626 29.538C36.9266 28.758 38.2046 28.368 39.5966 28.368C40.7126 28.368 41.6906 28.71 42.5306 29.394C43.3706 30.066 43.7906 31.002 43.7906 32.202C43.7906 33.462 43.3706 34.446 42.5306 35.154C41.7026 35.862 40.6586 36.216 39.3986 36.216C37.6706 36.216 36.3746 35.682 35.5106 34.614C34.6586 33.534 34.2326 32.022 34.2326 30.078C34.2326 27.918 34.7426 26.292 35.7626 25.2C36.7946 24.096 38.1386 23.544 39.7946 23.544C40.8626 23.544 41.8526 23.778 42.7646 24.246V25.686C41.8766 25.218 40.8986 24.984 39.8306 24.984C38.7026 24.984 37.7606 25.35 37.0046 26.082C36.2606 26.802 35.8466 27.954 35.7626 29.538ZM35.7806 31.05C36.0086 33.558 37.1786 34.812 39.2906 34.812C40.1786 34.812 40.8926 34.608 41.4326 34.2C41.9846 33.792 42.2606 33.15 42.2606 32.274C42.2606 31.386 41.9786 30.75 41.4146 30.366C40.8506 29.97 40.1186 29.772 39.2186 29.772C37.8866 29.772 36.7406 30.198 35.7806 31.05Z" fill="#B3B5B7"/>
<path d="M49.7358 16.3771C50.0132 16.3771 50.2853 16.2626 50.4814 16.0634C50.6777 15.8645 50.7905 15.5884 50.7905 15.307C50.7905 15.0255 50.6777 14.7494 50.4814 14.5504C50.2853 14.3513 50.0132 14.2368 49.7358 14.2368C49.4585 14.2368 49.1863 14.3512 48.9902 14.5504C48.794 14.7495 48.6812 15.0255 48.6812 15.307C48.6812 15.5884 48.7939 15.8645 48.9902 16.0634C49.1863 16.2626 49.4585 16.3771 49.7358 16.3771Z" fill="#B3B5B7"/>
<path d="M21.7339 45.4492H21.7182C21.1358 45.4492 20.6635 45.9284 20.6635 46.5194C20.6635 47.1103 21.1358 47.5895 21.7182 47.5895H21.7339C22.3163 47.5895 22.7886 47.1103 22.7886 46.5194C22.7886 45.9284 22.3163 45.4492 21.7339 45.4492Z" fill="#B3B5B7"/>
<path d="M54 41.3841V7.21352C54 5.50887 52.5806 4.12201 50.8359 4.12201H47.2232V3.50371C47.2232 1.57172 45.6146 0 43.6373 0C41.6599 0 40.0513 1.57172 40.0513 3.50371V4.12201H30.5725V3.50371C30.5725 1.57172 28.9639 0 26.9866 0C25.0093 0 23.4007 1.57172 23.4007 3.50371V4.12201H13.9219V3.50371C13.9219 1.57172 12.3133 0 10.3359 0C8.35861 0 6.75 1.57172 6.75 3.50371V4.12201H3.16406C1.4194 4.12201 0 5.50887 0 7.21352V49.6703C0 51.3749 1.4194 52.7618 3.16406 52.7618H42.3553C42.6464 52.7618 42.91 52.6465 43.1008 52.4601C43.1009 52.46 43.101 52.46 43.1011 52.4599L53.6911 42.1128C53.8819 41.9262 54 41.6686 54 41.3841ZM42.1607 3.50371C42.1607 2.70816 42.8231 2.06101 43.6373 2.06101C44.4515 2.06101 45.1138 2.70816 45.1138 3.50371V8.55318C45.1138 9.34873 44.4515 9.99588 43.6373 9.99588C42.8231 9.99588 42.1607 9.34873 42.1607 8.55318V3.50371ZM25.51 3.50371C25.51 2.70816 26.1724 2.06101 26.9866 2.06101C27.8008 2.06101 28.4632 2.70816 28.4632 3.50371V8.55318C28.4632 9.34873 27.8008 9.99588 26.9866 9.99588C26.1724 9.99588 25.51 9.34873 25.51 8.55318V3.50371ZM8.85938 3.50371C8.85938 2.70816 9.52172 2.06101 10.3359 2.06101C11.1502 2.06101 11.8125 2.70816 11.8125 3.50371V8.55318C11.8125 9.34873 11.1502 9.99588 10.3359 9.99588C9.52172 9.99588 8.85938 9.34873 8.85938 8.55318V3.50371ZM2.10938 49.6703V47.781H16.5059C17.0883 47.781 17.5605 47.3196 17.5605 46.7505C17.5605 46.1815 17.0883 45.72 16.5059 45.72H2.10938V17.7247H44.5078C45.0902 17.7247 45.5625 17.2632 45.5625 16.6942C45.5625 16.1251 45.0902 15.6637 44.5078 15.6637H2.10938V7.21352C2.10938 6.6453 2.58251 6.18302 3.16406 6.18302H6.75V8.55318C6.75 10.4852 8.35861 12.0569 10.3359 12.0569C12.3133 12.0569 13.9219 10.4852 13.9219 8.55318V6.18302H23.4007V8.55318C23.4007 10.4852 25.0093 12.0569 26.9866 12.0569C28.9639 12.0569 30.5725 10.4852 30.5725 8.55318V6.18302H40.0513V8.55318C40.0513 10.4852 41.6599 12.0569 43.6373 12.0569C45.6146 12.0569 47.2232 10.4852 47.2232 8.55318V6.18302H50.8359C51.4175 6.18302 51.8906 6.6453 51.8906 7.21352V40.3536H44.4647C42.72 40.3536 41.3006 41.7404 41.3006 43.4451V50.7008H3.16406C2.58251 50.7008 2.10938 50.2385 2.10938 49.6703ZM43.41 49.2433V43.445C43.41 42.8768 43.8831 42.4145 44.4647 42.4145H50.3991L43.41 49.2433Z" fill="#B3B5B7"/>
</svg>
