<svg width="71" height="72" viewBox="0 0 71 72" fill="none" xmlns="http://www.w3.org/2000/svg">
<path d="M66.0581 20.6111C63.6456 20.6111 61.6831 22.5922 61.6831 25.0277V29.4444H58.7664V23.9121C58.7664 22.3622 58.1442 20.8439 57.0575 19.7484L53.7876 16.4474C52.7023 15.3504 51.1983 14.7221 49.6632 14.7221H41.2663V8.83331H45.6413C48.054 8.83331 50.0163 6.85217 50.0163 4.41665C50.0163 1.98114 48.054 0 45.6413 0H28.1413C25.7288 0 23.7663 1.98114 23.7663 4.41665C23.7663 6.85217 25.7288 8.83331 28.1413 8.83331H32.5163V14.7222H27.0362C25.501 14.7222 23.9971 15.3505 22.9118 16.4475L18.7874 20.6112H16.4746C14.062 20.6112 12.0996 22.5922 12.0996 25.0279V29.4445H9.18311V25.0279C9.18311 22.5922 7.22065 20.6112 4.80811 20.6112C2.39556 20.6112 0.433105 22.5922 0.433105 25.0279V42.6945C0.433105 45.13 2.39556 47.1111 4.80811 47.1111C7.22065 47.1111 9.18311 45.13 9.18311 42.6945V38.2778H12.0997V42.6945C12.0997 45.13 14.0622 47.1111 16.4748 47.1111H18.7876L22.912 51.2748C23.9973 52.3717 25.5012 53 27.0364 53H46.7465C48.2818 53 49.7858 52.3717 50.8709 51.2748L57.0575 45.0293C58.1442 43.9337 58.7664 42.4154 58.7664 40.8656V38.2778H61.6831V42.6945C61.6831 45.13 63.6456 47.1111 66.0581 47.1111C68.4706 47.1111 70.4331 45.13 70.4331 42.6945V25.0279C70.4331 22.5922 68.4706 20.6111 66.0581 20.6111ZM67.5166 42.6943C67.5164 43.5065 66.8628 44.1665 66.0581 44.1665C65.2536 44.1665 64.5998 43.5067 64.5998 42.6943V36.8053C64.5998 35.9915 63.9474 35.3331 63.1413 35.3331H57.3081C56.502 35.3331 55.8498 35.9915 55.8498 36.8053V40.8655C55.8498 41.6404 55.5379 42.3996 54.9953 42.9473L48.8087 49.1926C48.2661 49.7406 47.5142 50.0553 46.7465 50.0553H27.0362C26.2685 50.0553 25.5166 49.7406 24.9742 49.1926L20.4225 44.5978C20.149 44.3217 19.7788 44.1664 19.3913 44.1664H16.4748C15.6701 44.1664 15.0163 43.5065 15.0163 42.6942V36.8053C15.0163 35.9915 14.3641 35.3329 13.558 35.3329H7.72473C6.91864 35.3329 6.26635 35.9915 6.26635 36.8053V42.6942C6.26649 43.5067 5.6127 44.1665 4.80811 44.1665C4.00351 44.1665 3.34973 43.5067 3.34973 42.6943V25.0277C3.34973 24.2154 4.00339 23.5553 4.80811 23.5553C5.61283 23.5553 6.26649 24.2152 6.26649 25.0277V30.9166C6.26649 31.7303 6.91878 32.3888 7.72487 32.3888H13.5581C14.3642 32.3888 15.0165 31.7303 15.0165 30.9166V25.0277C15.0165 24.2154 15.6701 23.5553 16.4749 23.5553H19.3914C19.7788 23.5553 20.1492 23.4002 20.4226 23.1241L24.9742 18.5292C25.5168 17.9815 26.2687 17.6666 27.0362 17.6666H33.9748C34.7809 17.6666 35.4331 17.0082 35.4331 16.1944V7.36104C35.4331 6.54728 34.7809 5.88878 33.9748 5.88878H28.1413C27.3368 5.88892 26.6831 5.22891 26.6831 4.41665C26.6831 3.6044 27.3368 2.94439 28.1414 2.94439H45.6414C46.4461 2.94439 47.0999 3.60427 47.0999 4.41665C47.0999 5.22904 46.4463 5.88892 45.6414 5.88892H39.8081C39.002 5.88892 38.3498 6.54742 38.3498 7.36118V16.1946C38.3498 17.0083 39.002 17.6668 39.8081 17.6668H49.6632C50.4308 17.6668 51.1828 17.9816 51.7254 18.5294L54.9953 21.8304C55.5379 22.3782 55.8498 23.1373 55.8498 23.9121V30.9166C55.8498 31.7303 56.502 32.3888 57.3081 32.3888H63.1414C63.9475 32.3888 64.5999 31.7303 64.5999 30.9166V25.0277C64.5999 24.2154 65.2536 23.5553 66.0583 23.5553C66.8628 23.5553 67.5166 24.2152 67.5166 25.0277V42.6943Z" fill="#B3B5B7"/>
<path d="M11.3571 58.76H12.4731V69.56H14.7591V71H8.38711V69.56H10.9611V60.362L8.38711 61.334V59.894L11.3571 58.76ZM15.0415 62.558C15.0415 61.298 15.4555 60.314 16.2835 59.606C17.1235 58.898 18.1735 58.544 19.4335 58.544C21.1615 58.544 22.4515 59.084 23.3035 60.164C24.1675 61.232 24.5995 62.738 24.5995 64.682C24.5995 66.842 24.0835 68.474 23.0515 69.578C22.0315 70.67 20.6935 71.216 19.0375 71.216C17.9695 71.216 16.9795 70.982 16.0675 70.514V69.074C16.9555 69.542 17.9335 69.776 19.0015 69.776C20.1295 69.776 21.0655 69.416 21.8095 68.696C22.5655 67.964 22.9855 66.806 23.0695 65.222C21.8935 66.002 20.6155 66.392 19.2355 66.392C18.1195 66.392 17.1415 66.056 16.3015 65.384C15.4615 64.7 15.0415 63.758 15.0415 62.558ZM19.5415 59.948C18.6535 59.948 17.9335 60.152 17.3815 60.56C16.8415 60.968 16.5715 61.61 16.5715 62.486C16.5715 63.374 16.8535 64.016 17.4175 64.412C17.9815 64.796 18.7135 64.988 19.6135 64.988C20.9455 64.988 22.0915 64.562 23.0515 63.71C22.8235 61.202 21.6535 59.948 19.5415 59.948ZM26.9956 69.47C26.0836 68.306 25.6276 66.776 25.6276 64.88C25.6276 62.984 26.0836 61.454 26.9956 60.29C27.9076 59.126 29.2516 58.544 31.0276 58.544C32.8156 58.544 34.1656 59.126 35.0776 60.29C35.9896 61.442 36.4456 62.972 36.4456 64.88C36.4456 66.788 35.9896 68.324 35.0776 69.488C34.1656 70.64 32.8156 71.216 31.0276 71.216C29.2516 71.216 27.9076 70.634 26.9956 69.47ZM33.9436 68.516C34.5916 67.664 34.9156 66.452 34.9156 64.88C34.9156 63.308 34.5916 62.102 33.9436 61.262C33.3076 60.41 32.3356 59.984 31.0276 59.984C29.7196 59.984 28.7476 60.41 28.1116 61.262C27.4756 62.102 27.1576 63.308 27.1576 64.88C27.1576 66.452 27.4756 67.664 28.1116 68.516C28.7476 69.356 29.7196 69.776 31.0276 69.776C32.3356 69.776 33.3076 69.356 33.9436 68.516ZM44.6203 63.692C44.5603 64.64 44.4883 65.468 44.4043 66.176C44.3203 66.884 44.2003 67.568 44.0443 68.228C43.8883 68.876 43.6963 69.404 43.4683 69.812C43.2523 70.22 42.9763 70.544 42.6403 70.784C42.3043 71.024 41.9203 71.144 41.4883 71.144C41.1403 71.144 40.7923 71.078 40.4443 70.946V69.812C40.6363 69.884 40.8283 69.92 41.0203 69.92C41.7403 69.92 42.2623 69.29 42.5863 68.03C42.9223 66.758 43.1323 64.868 43.2163 62.36H49.5703V71H48.1303V63.692H44.6203ZM52.6982 69.578C52.8782 69.734 52.9682 69.956 52.9682 70.244C52.9682 70.532 52.8782 70.76 52.6982 70.928C52.5182 71.084 52.2962 71.162 52.0322 71.162C51.7682 71.162 51.5402 71.084 51.3482 70.928C51.1682 70.76 51.0782 70.532 51.0782 70.244C51.0782 69.956 51.1682 69.734 51.3482 69.578C51.5402 69.422 51.7682 69.344 52.0322 69.344C52.2962 69.344 52.5182 69.422 52.6982 69.578ZM53.6021 66.716C53.6021 65.96 53.7401 65.282 54.0161 64.682C54.2921 64.082 54.6521 63.602 55.0961 63.242C55.5521 62.882 56.0501 62.612 56.5901 62.432C57.1421 62.24 57.7061 62.144 58.2821 62.144C59.3501 62.144 60.2381 62.378 60.9461 62.846V64.25C60.2861 63.734 59.4581 63.476 58.4621 63.476C57.5261 63.476 56.7221 63.746 56.0501 64.286C55.3781 64.826 55.0421 65.624 55.0421 66.68C55.0421 67.724 55.3721 68.522 56.0321 69.074C56.7041 69.614 57.5021 69.884 58.4261 69.884C59.3861 69.884 60.2561 69.65 61.0361 69.182V70.622C60.2201 71.018 59.2841 71.216 58.2281 71.216C56.9801 71.216 55.8941 70.826 54.9701 70.046C54.0581 69.266 53.6021 68.156 53.6021 66.716ZM63.6114 69.578C63.7914 69.734 63.8814 69.956 63.8814 70.244C63.8814 70.532 63.7914 70.76 63.6114 70.928C63.4314 71.084 63.2094 71.162 62.9454 71.162C62.6814 71.162 62.4534 71.084 62.2614 70.928C62.0814 70.76 61.9914 70.532 61.9914 70.244C61.9914 69.956 62.0814 69.734 62.2614 69.578C62.4534 69.422 62.6814 69.344 62.9454 69.344C63.2094 69.344 63.4314 69.422 63.6114 69.578Z" fill="#B3B5B7"/>
<path d="M26.6571 27.732C27.7971 26.94 29.1051 26.544 30.5811 26.544C31.8531 26.544 32.8671 26.832 33.6231 27.408C34.3791 27.984 34.7571 28.788 34.7571 29.82C34.7571 30.312 34.6611 30.774 34.4691 31.206C34.2891 31.638 34.0131 32.034 33.6411 32.394C33.2811 32.754 32.9271 33.06 32.5791 33.312C32.2431 33.552 31.8171 33.822 31.3011 34.122C31.2411 34.158 31.0551 34.266 30.7431 34.446C30.4431 34.626 30.2511 34.74 30.1671 34.788C30.0951 34.836 29.9271 34.944 29.6631 35.112C29.4111 35.268 29.2431 35.382 29.1591 35.454C29.0871 35.526 28.9551 35.64 28.7631 35.796C28.5831 35.952 28.4571 36.084 28.3851 36.192C28.3251 36.3 28.2411 36.438 28.1331 36.606C28.0371 36.762 27.9711 36.918 27.9351 37.074C27.8991 37.23 27.8811 37.398 27.8811 37.578L34.8471 37.56V39H26.2251V38.28C26.2251 37.608 26.3331 37.002 26.5491 36.462C26.7651 35.91 27.0711 35.442 27.4671 35.058C27.8751 34.662 28.2771 34.332 28.6731 34.068C29.0691 33.792 29.5311 33.498 30.0591 33.186C30.1791 33.126 30.2691 33.078 30.3291 33.042C31.4211 32.406 32.1351 31.92 32.4711 31.584C32.9871 31.056 33.2451 30.462 33.2451 29.802C33.2451 29.202 32.9991 28.746 32.5071 28.434C32.0271 28.11 31.3431 27.948 30.4551 27.948C29.1591 27.948 27.8931 28.38 26.6571 29.244V27.732ZM36.507 41.7H35.337L36.327 37.56H37.857L36.507 41.7ZM39.9331 37.47C39.0211 36.306 38.5651 34.776 38.5651 32.88C38.5651 30.984 39.0211 29.454 39.9331 28.29C40.8451 27.126 42.1891 26.544 43.9651 26.544C45.7531 26.544 47.1031 27.126 48.0151 28.29C48.9271 29.442 49.3831 30.972 49.3831 32.88C49.3831 34.788 48.9271 36.324 48.0151 37.488C47.1031 38.64 45.7531 39.216 43.9651 39.216C42.1891 39.216 40.8451 38.634 39.9331 37.47ZM46.8811 36.516C47.5291 35.664 47.8531 34.452 47.8531 32.88C47.8531 31.308 47.5291 30.102 46.8811 29.262C46.2451 28.41 45.2731 27.984 43.9651 27.984C42.6571 27.984 41.6851 28.41 41.0491 29.262C40.4131 30.102 40.0951 31.308 40.0951 32.88C40.0951 34.452 40.4131 35.664 41.0491 36.516C41.6851 37.356 42.6571 37.776 43.9651 37.776C45.2731 37.776 46.2451 37.356 46.8811 36.516Z" fill="#B3B5B7"/>
</svg>
