<svg width="71" height="72" viewBox="0 0 71 72" fill="none" xmlns="http://www.w3.org/2000/svg">
<path d="M66.0581 20.6111C63.6456 20.6111 61.6831 22.5922 61.6831 25.0277V29.4444H58.7664V23.9121C58.7664 22.3622 58.1442 20.8439 57.0575 19.7484L53.7876 16.4474C52.7023 15.3504 51.1983 14.7221 49.6632 14.7221H41.2663V8.83331H45.6413C48.054 8.83331 50.0163 6.85217 50.0163 4.41665C50.0163 1.98114 48.054 0 45.6413 0H28.1413C25.7288 0 23.7663 1.98114 23.7663 4.41665C23.7663 6.85217 25.7288 8.83331 28.1413 8.83331H32.5163V14.7222H27.0362C25.501 14.7222 23.9971 15.3505 22.9118 16.4475L18.7874 20.6112H16.4746C14.062 20.6112 12.0996 22.5922 12.0996 25.0279V29.4445H9.18311V25.0279C9.18311 22.5922 7.22065 20.6112 4.80811 20.6112C2.39556 20.6112 0.433105 22.5922 0.433105 25.0279V42.6945C0.433105 45.13 2.39556 47.1111 4.80811 47.1111C7.22065 47.1111 9.18311 45.13 9.18311 42.6945V38.2778H12.0997V42.6945C12.0997 45.13 14.0622 47.1111 16.4748 47.1111H18.7876L22.912 51.2748C23.9973 52.3717 25.5012 53 27.0364 53H46.7465C48.2818 53 49.7858 52.3717 50.8709 51.2748L57.0575 45.0293C58.1442 43.9337 58.7664 42.4154 58.7664 40.8656V38.2778H61.6831V42.6945C61.6831 45.13 63.6456 47.1111 66.0581 47.1111C68.4706 47.1111 70.4331 45.13 70.4331 42.6945V25.0279C70.4331 22.5922 68.4706 20.6111 66.0581 20.6111ZM67.5166 42.6943C67.5164 43.5065 66.8628 44.1665 66.0581 44.1665C65.2536 44.1665 64.5998 43.5067 64.5998 42.6943V36.8053C64.5998 35.9915 63.9474 35.3331 63.1413 35.3331H57.3081C56.502 35.3331 55.8498 35.9915 55.8498 36.8053V40.8655C55.8498 41.6404 55.5379 42.3996 54.9953 42.9473L48.8087 49.1926C48.2661 49.7406 47.5142 50.0553 46.7465 50.0553H27.0362C26.2685 50.0553 25.5166 49.7406 24.9742 49.1926L20.4225 44.5978C20.149 44.3217 19.7788 44.1664 19.3913 44.1664H16.4748C15.6701 44.1664 15.0163 43.5065 15.0163 42.6942V36.8053C15.0163 35.9915 14.3641 35.3329 13.558 35.3329H7.72473C6.91864 35.3329 6.26635 35.9915 6.26635 36.8053V42.6942C6.26649 43.5067 5.6127 44.1665 4.80811 44.1665C4.00351 44.1665 3.34973 43.5067 3.34973 42.6943V25.0277C3.34973 24.2154 4.00339 23.5553 4.80811 23.5553C5.61283 23.5553 6.26649 24.2152 6.26649 25.0277V30.9166C6.26649 31.7303 6.91878 32.3888 7.72487 32.3888H13.5581C14.3642 32.3888 15.0165 31.7303 15.0165 30.9166V25.0277C15.0165 24.2154 15.6701 23.5553 16.4749 23.5553H19.3914C19.7788 23.5553 20.1492 23.4002 20.4226 23.1241L24.9742 18.5292C25.5168 17.9815 26.2687 17.6666 27.0362 17.6666H33.9748C34.7809 17.6666 35.4331 17.0082 35.4331 16.1944V7.36104C35.4331 6.54728 34.7809 5.88878 33.9748 5.88878H28.1413C27.3368 5.88892 26.6831 5.22891 26.6831 4.41665C26.6831 3.6044 27.3368 2.94439 28.1414 2.94439H45.6414C46.4461 2.94439 47.0999 3.60427 47.0999 4.41665C47.0999 5.22904 46.4463 5.88892 45.6414 5.88892H39.8081C39.002 5.88892 38.3498 6.54742 38.3498 7.36118V16.1946C38.3498 17.0083 39.002 17.6668 39.8081 17.6668H49.6632C50.4308 17.6668 51.1828 17.9816 51.7254 18.5294L54.9953 21.8304C55.5379 22.3782 55.8498 23.1373 55.8498 23.9121V30.9166C55.8498 31.7303 56.502 32.3888 57.3081 32.3888H63.1414C63.9475 32.3888 64.5999 31.7303 64.5999 30.9166V25.0277C64.5999 24.2154 65.2536 23.5553 66.0583 23.5553C66.8628 23.5553 67.5166 24.2152 67.5166 25.0277V42.6943Z" fill="#B3B5B7"/>
<path d="M13.924 58.76H15.04V69.56H17.326V71H10.954V69.56H13.528V60.362L10.954 61.334V59.894L13.924 58.76ZM18.1484 59.732C19.2884 58.94 20.5964 58.544 22.0724 58.544C23.3444 58.544 24.3584 58.832 25.1144 59.408C25.8704 59.984 26.2484 60.788 26.2484 61.82C26.2484 62.312 26.1524 62.774 25.9604 63.206C25.7804 63.638 25.5044 64.034 25.1324 64.394C24.7724 64.754 24.4184 65.06 24.0704 65.312C23.7344 65.552 23.3084 65.822 22.7924 66.122C22.7324 66.158 22.5464 66.266 22.2344 66.446C21.9344 66.626 21.7424 66.74 21.6584 66.788C21.5864 66.836 21.4184 66.944 21.1544 67.112C20.9024 67.268 20.7344 67.382 20.6504 67.454C20.5784 67.526 20.4464 67.64 20.2544 67.796C20.0744 67.952 19.9484 68.084 19.8764 68.192C19.8164 68.3 19.7324 68.438 19.6244 68.606C19.5284 68.762 19.4624 68.918 19.4264 69.074C19.3904 69.23 19.3724 69.398 19.3724 69.578L26.3384 69.56V71H17.7164V70.28C17.7164 69.608 17.8244 69.002 18.0404 68.462C18.2564 67.91 18.5624 67.442 18.9584 67.058C19.3664 66.662 19.7684 66.332 20.1644 66.068C20.5604 65.792 21.0224 65.498 21.5504 65.186C21.6704 65.126 21.7604 65.078 21.8204 65.042C22.9124 64.406 23.6264 63.92 23.9624 63.584C24.4784 63.056 24.7364 62.462 24.7364 61.802C24.7364 61.202 24.4904 60.746 23.9984 60.434C23.5184 60.11 22.8344 59.948 21.9464 59.948C20.6504 59.948 19.3844 60.38 18.1484 61.244V59.732ZM35.6303 61.874C35.6303 62.498 35.4623 63.062 35.1263 63.566C34.8023 64.058 34.3763 64.394 33.8483 64.574C34.4723 64.766 35.0063 65.12 35.4503 65.636C35.9063 66.14 36.1343 66.818 36.1343 67.67C36.1343 68.81 35.7083 69.686 34.8563 70.298C34.0163 70.91 32.9483 71.216 31.6523 71.216C30.0083 71.216 28.5863 70.946 27.3863 70.406V68.912C28.5503 69.512 29.9303 69.806 31.5263 69.794C33.6263 69.794 34.6763 69.062 34.6763 67.598C34.6763 66.134 33.6803 65.402 31.6883 65.402H29.8163V63.962L31.5263 63.98C32.3903 63.98 33.0443 63.8 33.4883 63.44C33.9443 63.068 34.1723 62.588 34.1723 62C34.1723 61.364 33.9203 60.866 33.4163 60.506C32.9123 60.134 32.1983 59.948 31.2743 59.948C30.0023 59.948 28.7783 60.26 27.6023 60.884V59.408C28.7303 58.832 30.0203 58.544 31.4723 58.544C32.7203 58.544 33.7223 58.85 34.4783 59.462C35.2463 60.074 35.6303 60.878 35.6303 61.874ZM44.2692 63.692C44.2092 64.64 44.1372 65.468 44.0532 66.176C43.9692 66.884 43.8492 67.568 43.6932 68.228C43.5372 68.876 43.3452 69.404 43.1172 69.812C42.9012 70.22 42.6252 70.544 42.2892 70.784C41.9532 71.024 41.5692 71.144 41.1372 71.144C40.7892 71.144 40.4412 71.078 40.0932 70.946V69.812C40.2852 69.884 40.4772 69.92 40.6692 69.92C41.3892 69.92 41.9112 69.29 42.2352 68.03C42.5712 66.758 42.7812 64.868 42.8652 62.36H49.2192V71H47.7792V63.692H44.2692ZM52.3471 69.578C52.5271 69.734 52.6171 69.956 52.6171 70.244C52.6171 70.532 52.5271 70.76 52.3471 70.928C52.1671 71.084 51.9451 71.162 51.6811 71.162C51.4171 71.162 51.1891 71.084 50.9971 70.928C50.8171 70.76 50.7271 70.532 50.7271 70.244C50.7271 69.956 50.8171 69.734 50.9971 69.578C51.1891 69.422 51.4171 69.344 51.6811 69.344C51.9451 69.344 52.1671 69.422 52.3471 69.578ZM53.251 66.716C53.251 65.96 53.389 65.282 53.665 64.682C53.941 64.082 54.301 63.602 54.745 63.242C55.201 62.882 55.699 62.612 56.239 62.432C56.791 62.24 57.355 62.144 57.931 62.144C58.999 62.144 59.887 62.378 60.595 62.846V64.25C59.935 63.734 59.107 63.476 58.111 63.476C57.175 63.476 56.371 63.746 55.699 64.286C55.027 64.826 54.691 65.624 54.691 66.68C54.691 67.724 55.021 68.522 55.681 69.074C56.353 69.614 57.151 69.884 58.075 69.884C59.035 69.884 59.905 69.65 60.685 69.182V70.622C59.869 71.018 58.933 71.216 57.877 71.216C56.629 71.216 55.543 70.826 54.619 70.046C53.707 69.266 53.251 68.156 53.251 66.716ZM63.2603 69.578C63.4403 69.734 63.5303 69.956 63.5303 70.244C63.5303 70.532 63.4403 70.76 63.2603 70.928C63.0803 71.084 62.8583 71.162 62.5943 71.162C62.3303 71.162 62.1023 71.084 61.9103 70.928C61.7303 70.76 61.6403 70.532 61.6403 70.244C61.6403 69.956 61.7303 69.734 61.9103 69.578C62.1023 69.422 62.3303 69.344 62.5943 69.344C62.8583 69.344 63.0803 69.422 63.2603 69.578Z" fill="#B3B5B7"/>
<path d="M29.3571 26.76H30.4731V37.56H32.7591V39H26.3871V37.56H28.9611V28.362L26.3871 29.334V27.894L29.3571 26.76ZM33.9055 41.7H32.7355L33.7255 37.56H35.2555L33.9055 41.7ZM37.5643 32.538C38.7283 31.758 40.0063 31.368 41.3983 31.368C42.5143 31.368 43.4923 31.71 44.3323 32.394C45.1723 33.066 45.5923 34.002 45.5923 35.202C45.5923 36.462 45.1723 37.446 44.3323 38.154C43.5043 38.862 42.4603 39.216 41.2003 39.216C39.4723 39.216 38.1763 38.682 37.3123 37.614C36.4603 36.534 36.0343 35.022 36.0343 33.078C36.0343 30.918 36.5443 29.292 37.5643 28.2C38.5963 27.096 39.9403 26.544 41.5963 26.544C42.6643 26.544 43.6543 26.778 44.5663 27.246V28.686C43.6783 28.218 42.7003 27.984 41.6323 27.984C40.5043 27.984 39.5623 28.35 38.8063 29.082C38.0623 29.802 37.6483 30.954 37.5643 32.538ZM37.5823 34.05C37.8103 36.558 38.9803 37.812 41.0923 37.812C41.9803 37.812 42.6943 37.608 43.2343 37.2C43.7863 36.792 44.0623 36.15 44.0623 35.274C44.0623 34.386 43.7803 33.75 43.2163 33.366C42.6523 32.97 41.9203 32.772 41.0203 32.772C39.6883 32.772 38.5423 33.198 37.5823 34.05Z" fill="#B3B5B7"/>
</svg>
