<svg width="71" height="72" viewBox="0 0 71 72" fill="none" xmlns="http://www.w3.org/2000/svg">
<path d="M66.0581 20.6111C63.6456 20.6111 61.6831 22.5922 61.6831 25.0277V29.4444H58.7664V23.9121C58.7664 22.3622 58.1442 20.8439 57.0575 19.7484L53.7876 16.4474C52.7023 15.3504 51.1983 14.7221 49.6632 14.7221H41.2663V8.83331H45.6413C48.054 8.83331 50.0163 6.85217 50.0163 4.41665C50.0163 1.98114 48.054 0 45.6413 0H28.1413C25.7288 0 23.7663 1.98114 23.7663 4.41665C23.7663 6.85217 25.7288 8.83331 28.1413 8.83331H32.5163V14.7222H27.0362C25.501 14.7222 23.9971 15.3505 22.9118 16.4475L18.7874 20.6112H16.4746C14.062 20.6112 12.0996 22.5922 12.0996 25.0279V29.4445H9.18311V25.0279C9.18311 22.5922 7.22065 20.6112 4.80811 20.6112C2.39556 20.6112 0.433105 22.5922 0.433105 25.0279V42.6945C0.433105 45.13 2.39556 47.1111 4.80811 47.1111C7.22065 47.1111 9.18311 45.13 9.18311 42.6945V38.2778H12.0997V42.6945C12.0997 45.13 14.0622 47.1111 16.4748 47.1111H18.7876L22.912 51.2748C23.9973 52.3717 25.5012 53 27.0364 53H46.7465C48.2818 53 49.7858 52.3717 50.8709 51.2748L57.0575 45.0293C58.1442 43.9337 58.7664 42.4154 58.7664 40.8656V38.2778H61.6831V42.6945C61.6831 45.13 63.6456 47.1111 66.0581 47.1111C68.4706 47.1111 70.4331 45.13 70.4331 42.6945V25.0279C70.4331 22.5922 68.4706 20.6111 66.0581 20.6111ZM67.5166 42.6943C67.5164 43.5065 66.8628 44.1665 66.0581 44.1665C65.2536 44.1665 64.5998 43.5067 64.5998 42.6943V36.8053C64.5998 35.9915 63.9474 35.3331 63.1413 35.3331H57.3081C56.502 35.3331 55.8498 35.9915 55.8498 36.8053V40.8655C55.8498 41.6404 55.5379 42.3996 54.9953 42.9473L48.8087 49.1926C48.2661 49.7406 47.5142 50.0553 46.7465 50.0553H27.0362C26.2685 50.0553 25.5166 49.7406 24.9742 49.1926L20.4225 44.5978C20.149 44.3217 19.7788 44.1664 19.3913 44.1664H16.4748C15.6701 44.1664 15.0163 43.5065 15.0163 42.6942V36.8053C15.0163 35.9915 14.3641 35.3329 13.558 35.3329H7.72473C6.91864 35.3329 6.26635 35.9915 6.26635 36.8053V42.6942C6.26649 43.5067 5.6127 44.1665 4.80811 44.1665C4.00351 44.1665 3.34973 43.5067 3.34973 42.6943V25.0277C3.34973 24.2154 4.00339 23.5553 4.80811 23.5553C5.61283 23.5553 6.26649 24.2152 6.26649 25.0277V30.9166C6.26649 31.7303 6.91878 32.3888 7.72487 32.3888H13.5581C14.3642 32.3888 15.0165 31.7303 15.0165 30.9166V25.0277C15.0165 24.2154 15.6701 23.5553 16.4749 23.5553H19.3914C19.7788 23.5553 20.1492 23.4002 20.4226 23.1241L24.9742 18.5292C25.5168 17.9815 26.2687 17.6666 27.0362 17.6666H33.9748C34.7809 17.6666 35.4331 17.0082 35.4331 16.1944V7.36104C35.4331 6.54728 34.7809 5.88878 33.9748 5.88878H28.1413C27.3368 5.88892 26.6831 5.22891 26.6831 4.41665C26.6831 3.6044 27.3368 2.94439 28.1414 2.94439H45.6414C46.4461 2.94439 47.0999 3.60427 47.0999 4.41665C47.0999 5.22904 46.4463 5.88892 45.6414 5.88892H39.8081C39.002 5.88892 38.3498 6.54742 38.3498 7.36118V16.1946C38.3498 17.0083 39.002 17.6668 39.8081 17.6668H49.6632C50.4308 17.6668 51.1828 17.9816 51.7254 18.5294L54.9953 21.8304C55.5379 22.3782 55.8498 23.1373 55.8498 23.9121V30.9166C55.8498 31.7303 56.502 32.3888 57.3081 32.3888H63.1414C63.9475 32.3888 64.5999 31.7303 64.5999 30.9166V25.0277C64.5999 24.2154 65.2536 23.5553 66.0583 23.5553C66.8628 23.5553 67.5166 24.2152 67.5166 25.0277V42.6943Z" fill="#B3B5B7"/>
<path d="M11.3571 58.76H12.4731V69.56H14.7591V71H8.38711V69.56H10.9611V60.362L8.38711 61.334V59.894L11.3571 58.76ZM16.0495 58.76H23.3935V60.2H17.4715L17.2555 63.656C17.9035 63.476 18.5995 63.386 19.3435 63.386C19.9555 63.386 20.5255 63.458 21.0535 63.602C21.5815 63.734 22.0675 63.95 22.5115 64.25C22.9675 64.538 23.3275 64.946 23.5915 65.474C23.8555 65.99 23.9875 66.602 23.9875 67.31C23.9875 68.522 23.5375 69.476 22.6375 70.172C21.7495 70.868 20.6155 71.216 19.2355 71.216C17.7475 71.216 16.4395 70.94 15.3115 70.388V68.948C16.3915 69.524 17.6395 69.812 19.0555 69.812C20.0875 69.812 20.9095 69.596 21.5215 69.164C22.1455 68.732 22.4575 68.114 22.4575 67.31C22.4575 65.606 21.2455 64.754 18.8215 64.754C17.7655 64.754 16.7095 64.946 15.6535 65.33L16.0495 58.76ZM26.2573 69.47C25.3453 68.306 24.8893 66.776 24.8893 64.88C24.8893 62.984 25.3453 61.454 26.2573 60.29C27.1693 59.126 28.5133 58.544 30.2893 58.544C32.0773 58.544 33.4273 59.126 34.3393 60.29C35.2513 61.442 35.7073 62.972 35.7073 64.88C35.7073 66.788 35.2513 68.324 34.3393 69.488C33.4273 70.64 32.0773 71.216 30.2893 71.216C28.5133 71.216 27.1693 70.634 26.2573 69.47ZM33.2053 68.516C33.8533 67.664 34.1773 66.452 34.1773 64.88C34.1773 63.308 33.8533 62.102 33.2053 61.262C32.5693 60.41 31.5973 59.984 30.2893 59.984C28.9813 59.984 28.0093 60.41 27.3733 61.262C26.7373 62.102 26.4193 63.308 26.4193 64.88C26.4193 66.452 26.7373 67.664 27.3733 68.516C28.0093 69.356 28.9813 69.776 30.2893 69.776C31.5973 69.776 32.5693 69.356 33.2053 68.516ZM43.882 63.692C43.822 64.64 43.75 65.468 43.666 66.176C43.582 66.884 43.462 67.568 43.306 68.228C43.15 68.876 42.958 69.404 42.73 69.812C42.514 70.22 42.238 70.544 41.902 70.784C41.566 71.024 41.182 71.144 40.75 71.144C40.402 71.144 40.054 71.078 39.706 70.946V69.812C39.898 69.884 40.09 69.92 40.282 69.92C41.002 69.92 41.524 69.29 41.848 68.03C42.184 66.758 42.394 64.868 42.478 62.36H48.832V71H47.392V63.692H43.882ZM51.9599 69.578C52.1399 69.734 52.2299 69.956 52.2299 70.244C52.2299 70.532 52.1399 70.76 51.9599 70.928C51.7799 71.084 51.5579 71.162 51.2939 71.162C51.0299 71.162 50.8019 71.084 50.6099 70.928C50.4299 70.76 50.3399 70.532 50.3399 70.244C50.3399 69.956 50.4299 69.734 50.6099 69.578C50.8019 69.422 51.0299 69.344 51.2939 69.344C51.5579 69.344 51.7799 69.422 51.9599 69.578ZM52.8638 66.716C52.8638 65.96 53.0018 65.282 53.2778 64.682C53.5538 64.082 53.9138 63.602 54.3578 63.242C54.8138 62.882 55.3118 62.612 55.8518 62.432C56.4038 62.24 56.9678 62.144 57.5438 62.144C58.6118 62.144 59.4998 62.378 60.2078 62.846V64.25C59.5478 63.734 58.7198 63.476 57.7238 63.476C56.7878 63.476 55.9838 63.746 55.3118 64.286C54.6398 64.826 54.3038 65.624 54.3038 66.68C54.3038 67.724 54.6338 68.522 55.2938 69.074C55.9658 69.614 56.7638 69.884 57.6878 69.884C58.6478 69.884 59.5178 69.65 60.2978 69.182V70.622C59.4818 71.018 58.5458 71.216 57.4898 71.216C56.2418 71.216 55.1558 70.826 54.2318 70.046C53.3198 69.266 52.8638 68.156 52.8638 66.716ZM62.8731 69.578C63.0531 69.734 63.1431 69.956 63.1431 70.244C63.1431 70.532 63.0531 70.76 62.8731 70.928C62.6931 71.084 62.4711 71.162 62.2071 71.162C61.9431 71.162 61.7151 71.084 61.5231 70.928C61.3431 70.76 61.2531 70.532 61.2531 70.244C61.2531 69.956 61.3431 69.734 61.5231 69.578C61.7151 69.422 61.9431 69.344 62.2071 69.344C62.4711 69.344 62.6931 69.422 62.8731 69.578Z" fill="#B3B5B7"/>
<path d="M26.6571 27.732C27.7971 26.94 29.1051 26.544 30.5811 26.544C31.8531 26.544 32.8671 26.832 33.6231 27.408C34.3791 27.984 34.7571 28.788 34.7571 29.82C34.7571 30.312 34.6611 30.774 34.4691 31.206C34.2891 31.638 34.0131 32.034 33.6411 32.394C33.2811 32.754 32.9271 33.06 32.5791 33.312C32.2431 33.552 31.8171 33.822 31.3011 34.122C31.2411 34.158 31.0551 34.266 30.7431 34.446C30.4431 34.626 30.2511 34.74 30.1671 34.788C30.0951 34.836 29.9271 34.944 29.6631 35.112C29.4111 35.268 29.2431 35.382 29.1591 35.454C29.0871 35.526 28.9551 35.64 28.7631 35.796C28.5831 35.952 28.4571 36.084 28.3851 36.192C28.3251 36.3 28.2411 36.438 28.1331 36.606C28.0371 36.762 27.9711 36.918 27.9351 37.074C27.8991 37.23 27.8811 37.398 27.8811 37.578L34.8471 37.56V39H26.2251V38.28C26.2251 37.608 26.3331 37.002 26.5491 36.462C26.7651 35.91 27.0711 35.442 27.4671 35.058C27.8751 34.662 28.2771 34.332 28.6731 34.068C29.0691 33.792 29.5311 33.498 30.0591 33.186C30.1791 33.126 30.2691 33.078 30.3291 33.042C31.4211 32.406 32.1351 31.92 32.4711 31.584C32.9871 31.056 33.2451 30.462 33.2451 29.802C33.2451 29.202 32.9991 28.746 32.5071 28.434C32.0271 28.11 31.3431 27.948 30.4551 27.948C29.1591 27.948 27.8931 28.38 26.6571 29.244V27.732ZM36.507 41.7H35.337L36.327 37.56H37.857L36.507 41.7ZM39.3984 27.732C40.5384 26.94 41.8464 26.544 43.3224 26.544C44.5944 26.544 45.6084 26.832 46.3644 27.408C47.1204 27.984 47.4984 28.788 47.4984 29.82C47.4984 30.312 47.4024 30.774 47.2104 31.206C47.0304 31.638 46.7544 32.034 46.3824 32.394C46.0224 32.754 45.6684 33.06 45.3204 33.312C44.9844 33.552 44.5584 33.822 44.0424 34.122C43.9824 34.158 43.7964 34.266 43.4844 34.446C43.1844 34.626 42.9924 34.74 42.9084 34.788C42.8364 34.836 42.6684 34.944 42.4044 35.112C42.1524 35.268 41.9844 35.382 41.9004 35.454C41.8284 35.526 41.6964 35.64 41.5044 35.796C41.3244 35.952 41.1984 36.084 41.1264 36.192C41.0664 36.3 40.9824 36.438 40.8744 36.606C40.7784 36.762 40.7124 36.918 40.6764 37.074C40.6404 37.23 40.6224 37.398 40.6224 37.578L47.5884 37.56V39H38.9664V38.28C38.9664 37.608 39.0744 37.002 39.2904 36.462C39.5064 35.91 39.8124 35.442 40.2084 35.058C40.6164 34.662 41.0184 34.332 41.4144 34.068C41.8104 33.792 42.2724 33.498 42.8004 33.186C42.9204 33.126 43.0104 33.078 43.0704 33.042C44.1624 32.406 44.8764 31.92 45.2124 31.584C45.7284 31.056 45.9864 30.462 45.9864 29.802C45.9864 29.202 45.7404 28.746 45.2484 28.434C44.7684 28.11 44.0844 27.948 43.1964 27.948C41.9004 27.948 40.6344 28.38 39.3984 29.244V27.732Z" fill="#B3B5B7"/>
</svg>
